<?xml version='1.0' encoding='iso-8859-1'?>
<svg version="1.1" xmlns="http://www.w3.org/2000/svg" viewBox="0 0 409.221 409.221" xmlns:xlink="http://www.w3.org/1999/xlink" enable-background="new 0 0 409.221 409.221">
  <path d="m10.937,209.257c-11.139-27.778 2.647-57.93 17.244-89.852 13.794-30.167 29.427-64.358 28.14-102.951-0.141-4.206 2.367-8.05 6.273-9.616l8.58-3.439c5.009-2.008 10.709,0.321 12.878,5.265 32.819,74.808 60.106,111.646 88.476,119.443 18.812,5.172 40.467-1.644 68.149-21.442 2.496-1.785 5.675-2.326 8.622-1.465 2.946,0.861 5.334,3.027 6.477,5.877 5.769,14.386 8.31,29.62 7.553,45.281-0.267,5.517-4.945,9.771-10.472,9.505-5.516-0.267-9.771-4.955-9.505-10.472 0.41-8.484-0.364-16.809-2.307-24.873-27.965,17.604-51.657,22.965-73.818,16.874-18.77-5.159-36.141-18.746-53.106-41.537-12.494-16.784-24.971-38.599-38.64-67.67-3.578,33.692-17.009,63.069-29.112,89.538-13.315,29.122-24.816,54.272-16.87,74.09 4.693,11.702 11.77,22.098 21.031,30.898 4.004,3.804 4.166,10.134 0.361,14.137-1.965,2.069-4.605,3.112-7.251,3.112-2.474,0-4.951-0.912-6.886-2.751-11.36-10.794-20.047-23.563-25.817-37.952zm398.284,130.789c0,5.522-4.478,10-10,10h-43.437c-0.133,0.002-0.27,0.002-0.402,0h-32.853l-31.255,51.672c-1.812,2.994-5.057,4.824-8.557,4.824h-156.216c-3.5,0-6.745-1.83-8.557-4.824l-31.254-51.672h-32.851c-0.133,0.002-0.27,0.002-0.402,0h-43.437c-5.522,0-10-4.478-10-10s4.478-10 10-10h33.945c5.182-84.12 75.264-150.972 160.665-150.972 13.135,0 26.211,1.59 38.865,4.727 5.361,1.328 8.63,6.751 7.301,12.111-1.328,5.36-6.755,8.628-12.111,7.301-11.082-2.746-22.54-4.139-34.055-4.139-74.369,0-135.473,57.89-140.622,130.972h84.548c-6.013-4.999-10.54-10.229-13.847-14.803-9.732-13.463-16.427-32.717-8.129-43.178 3.301-4.161 9.774-7.376 18.051-3.91 24.594,10.292 47.806,10.628 68.995,0.991 25.461-11.578 45.704-36.674 56.999-70.663 5.963-17.944 23.752-26.162 41.386-26.45-0.926-8.416-3.811-16.571-8.544-23.756-3.037-4.612-1.762-10.814 2.851-13.853 4.613-3.036 10.815-1.762 13.853,2.851 7.518,11.414 11.638,24.603 12.119,38.053 20.207,7.215 31.667,24.903 28.937,45.729-3.235,24.669-15.979,50.502-35.88,72.739-13.106,14.645-28.586,27.071-44.954,36.249h64.861c-0.68-9.685-2.345-19.243-4.977-28.528-1.506-5.313 1.581-10.842 6.895-12.348 5.315-1.504 10.842,1.581 12.348,6.895 3.134,11.058 5.068,22.448 5.777,33.981h33.944c5.522,0.001 10,4.479 10,10.001zm-249.679-26.947c12.44,11.139 40.99,27.008 92.404,8.144 39.22-14.391 83.395-56.771 89.43-102.785 1.6-12.2-5.017-18.779-11.318-22.231-0.111,0.444-0.228,0.888-0.348,1.33-1.446,5.33-6.94,8.478-12.269,7.034-5.33-1.445-8.479-6.938-7.034-12.269 0.023-0.085 0.046-0.171 0.068-0.255-9.462,0.572-18.223,4.694-20.892,12.724-13.069,39.332-37.112,68.653-67.698,82.563-24.097,10.958-51.014,11.573-78.244,1.868 1.78,6.117 6.53,15.487 15.901,23.877zm139.613,36.947h-189.091l22.075,36.496h144.939l22.077-36.496zm-120.333-104.818c-5.522,0-10,4.478-10,10s4.478,10 10,10h1.9c5.522,0 10-4.478 10-10s-4.478-10-10-10h-1.9zm-81.358,50.385h-1.9c-5.522,0-10,4.478-10,10s4.478,10 10,10h1.9c5.522,0 10-4.478 10-10s-4.478-10-10-10zm43.497-67.743c-5.522,0-10,4.478-10,10s4.478,10 10,10h1.9c5.522,0 10-4.478 10-10s-4.478-10-10-10h-1.9zm69.828-14.97c-5.522,0-10,4.478-10,10s4.478,10 10,10h1.9c5.522,0 10-4.478 10-10s-4.478-10-10-10h-1.9z"/>
</svg>
